# xmcd
#
# Track frame offsets:
#  150
#  14516
#  30557
#  45300
#  58630
#  73925
#  93473
#  107420
#  123777
#  137628
#  156555
#
# Disc length: 2300 seconds
#
# Revision: 0
# Processed by: cddbd v1.5.1PL2 Copyright (c) Steve Scherf et al.
# Submitted via: Collectorz.com_Music_Collector 6.9
#
DISCID=8f08fa0b
DTITLE=Aaron Tippin - What This Country Needs
DYEAR=1998
DGENRE=Country
TTITLE0=What This Country Needs
TTITLE1=For You I Will
TTITLE2=Her
TTITLE3=I Didn't Come This Far (Just To Walk Away)
TTITLE4=I'm Leaving
TTITLE5=Nothing Compares to Loving You
TTITLE6=Don't Stop (We're Just Gettin' Started)
TTITLE7=Somewhere Under The Rainbow
TTITLE8=Back When I Knew Everything
TTITLE9=Sweetwater
TTITLE10=You're The Only Reason For Me
EXTD=
EXTT0=
EXTT1=
EXTT2=
EXTT3=
EXTT4=
EXTT5=
EXTT6=
EXTT7=
EXTT8=
EXTT9=
EXTT10=
PLAYORDER=
